<mxfile host="app.diagrams.net" modified="2020-12-05T09:14:07.304Z" agent="5.0 (Windows NT 10.0; Win64; x64) AppleWebKit/537.36 (KHTML, like Gecko) Chrome/87.0.4280.88 Safari/537.36" etag="NvZObffivVdXa4ExU9nm" version="13.10.9" type="github">
  <diagram id="26AvpNieTNaw5I2P6WNo" name="Page-1">
    <mxGraphModel dx="2736" dy="818" grid="0" gridSize="10" guides="1" tooltips="1" connect="1" arrows="1" fold="1" page="1" pageScale="1" pageWidth="850" pageHeight="1100" math="0" shadow="0">
      <root>
        <mxCell id="0" />
        <mxCell id="1" parent="0" />
        <mxCell id="7SKpadpjBrFhAPYEajGP-1" value="&lt;font style=&quot;font-size: 24px&quot;&gt;2&lt;sup&gt;2&lt;/sup&gt;&lt;/font&gt;" style="rounded=1;whiteSpace=wrap;html=1;fillColor=#dae8fc;strokeColor=#6c8ebf;" parent="1" vertex="1">
          <mxGeometry x="9" y="343" width="120" height="60" as="geometry" />
        </mxCell>
        <mxCell id="7SKpadpjBrFhAPYEajGP-4" value="&lt;font style=&quot;font-size: 24px&quot;&gt;2&lt;sup&gt;1&lt;/sup&gt;&lt;/font&gt;" style="rounded=1;whiteSpace=wrap;html=1;fillColor=#dae8fc;strokeColor=#6c8ebf;" parent="1" vertex="1">
          <mxGeometry x="164" y="343" width="120" height="60" as="geometry" />
        </mxCell>
        <mxCell id="7SKpadpjBrFhAPYEajGP-5" value="&lt;font style=&quot;font-size: 24px&quot;&gt;&lt;font style=&quot;font-size: 24px&quot;&gt;2&lt;/font&gt;&lt;font style=&quot;font-size: 24px&quot;&gt;&lt;sup&gt;0&lt;/sup&gt;&lt;/font&gt;&lt;/font&gt;" style="rounded=1;whiteSpace=wrap;html=1;fillColor=#dae8fc;strokeColor=#6c8ebf;" parent="1" vertex="1">
          <mxGeometry x="324" y="343" width="120" height="60" as="geometry" />
        </mxCell>
        <mxCell id="7SKpadpjBrFhAPYEajGP-6" value="&lt;font style=&quot;font-size: 24px&quot;&gt;2&lt;sup&gt;3&lt;/sup&gt;&lt;/font&gt;" style="rounded=1;whiteSpace=wrap;html=1;fillColor=#dae8fc;strokeColor=#6c8ebf;" parent="1" vertex="1">
          <mxGeometry x="-146" y="343" width="120" height="60" as="geometry" />
        </mxCell>
        <mxCell id="7SKpadpjBrFhAPYEajGP-7" value="&lt;font style=&quot;font-size: 24px&quot;&gt;2&lt;sup&gt;4&lt;/sup&gt;&lt;/font&gt;" style="rounded=1;whiteSpace=wrap;html=1;fillColor=#dae8fc;strokeColor=#6c8ebf;" parent="1" vertex="1">
          <mxGeometry x="-306" y="343" width="120" height="60" as="geometry" />
        </mxCell>
        <mxCell id="7SKpadpjBrFhAPYEajGP-8" value="&lt;font style=&quot;font-size: 24px&quot;&gt;2&lt;sup&gt;4&lt;/sup&gt;&lt;/font&gt;" style="rounded=1;whiteSpace=wrap;html=1;fillColor=#dae8fc;strokeColor=#6c8ebf;" parent="1" vertex="1">
          <mxGeometry x="-306" y="343" width="120" height="60" as="geometry" />
        </mxCell>
        <mxCell id="7SKpadpjBrFhAPYEajGP-9" value="&lt;font style=&quot;font-size: 24px&quot;&gt;2&lt;sup&gt;3&lt;/sup&gt;&lt;/font&gt;" style="rounded=1;whiteSpace=wrap;html=1;fillColor=#dae8fc;strokeColor=#6c8ebf;" parent="1" vertex="1">
          <mxGeometry x="-146" y="343" width="120" height="60" as="geometry" />
        </mxCell>
        <mxCell id="7SKpadpjBrFhAPYEajGP-10" value="&lt;font style=&quot;font-size: 24px&quot;&gt;2&lt;sup&gt;2&lt;/sup&gt;&lt;/font&gt;" style="rounded=1;whiteSpace=wrap;html=1;fillColor=#dae8fc;strokeColor=#6c8ebf;" parent="1" vertex="1">
          <mxGeometry x="9" y="343" width="120" height="60" as="geometry" />
        </mxCell>
        <mxCell id="7SKpadpjBrFhAPYEajGP-11" value="&lt;font style=&quot;font-size: 24px&quot;&gt;2&lt;sup&gt;1&lt;/sup&gt;&lt;/font&gt;" style="rounded=1;whiteSpace=wrap;html=1;fillColor=#dae8fc;strokeColor=#6c8ebf;" parent="1" vertex="1">
          <mxGeometry x="164" y="343" width="120" height="60" as="geometry" />
        </mxCell>
        <mxCell id="7SKpadpjBrFhAPYEajGP-12" value="16" style="rounded=1;whiteSpace=wrap;html=1;fillColor=#fff2cc;strokeColor=#d6b656;fontSize=24;" parent="1" vertex="1">
          <mxGeometry x="-306" y="233" width="120" height="60" as="geometry" />
        </mxCell>
        <mxCell id="7SKpadpjBrFhAPYEajGP-13" value="8" style="rounded=1;whiteSpace=wrap;html=1;fillColor=#fff2cc;strokeColor=#d6b656;fontSize=24;" parent="1" vertex="1">
          <mxGeometry x="-146" y="233" width="120" height="60" as="geometry" />
        </mxCell>
        <mxCell id="7SKpadpjBrFhAPYEajGP-14" value="4" style="rounded=1;whiteSpace=wrap;html=1;fillColor=#fff2cc;strokeColor=#d6b656;fontSize=24;" parent="1" vertex="1">
          <mxGeometry x="9" y="233" width="120" height="60" as="geometry" />
        </mxCell>
        <mxCell id="7SKpadpjBrFhAPYEajGP-15" value="2" style="rounded=1;whiteSpace=wrap;html=1;fillColor=#fff2cc;strokeColor=#d6b656;fontSize=24;" parent="1" vertex="1">
          <mxGeometry x="164" y="233" width="120" height="60" as="geometry" />
        </mxCell>
        <mxCell id="7SKpadpjBrFhAPYEajGP-16" value="1" style="rounded=1;whiteSpace=wrap;html=1;fillColor=#fff2cc;strokeColor=#d6b656;fontSize=24;" parent="1" vertex="1">
          <mxGeometry x="324" y="233" width="120" height="60" as="geometry" />
        </mxCell>
        <mxCell id="7SKpadpjBrFhAPYEajGP-18" value="" style="rounded=1;whiteSpace=wrap;html=1;fillColor=#dae8fc;strokeColor=#6c8ebf;" parent="1" vertex="1">
          <mxGeometry x="-306" y="443" width="120" height="60" as="geometry" />
        </mxCell>
        <mxCell id="7SKpadpjBrFhAPYEajGP-19" value="" style="rounded=1;whiteSpace=wrap;html=1;fillColor=#dae8fc;strokeColor=#6c8ebf;" parent="1" vertex="1">
          <mxGeometry x="-146" y="443" width="120" height="60" as="geometry" />
        </mxCell>
        <mxCell id="7SKpadpjBrFhAPYEajGP-20" value="1" style="rounded=1;whiteSpace=wrap;html=1;fontSize=26;" parent="1" vertex="1">
          <mxGeometry x="9" y="443" width="120" height="60" as="geometry" />
        </mxCell>
        <mxCell id="7SKpadpjBrFhAPYEajGP-21" value="0" style="rounded=1;whiteSpace=wrap;html=1;fontSize=26;" parent="1" vertex="1">
          <mxGeometry x="164" y="443" width="120" height="60" as="geometry" />
        </mxCell>
        <mxCell id="7SKpadpjBrFhAPYEajGP-22" value="0" style="rounded=1;whiteSpace=wrap;html=1;fontSize=26;" parent="1" vertex="1">
          <mxGeometry x="324" y="443" width="120" height="60" as="geometry" />
        </mxCell>
        <mxCell id="7SKpadpjBrFhAPYEajGP-23" value="0" style="rounded=1;whiteSpace=wrap;html=1;fontSize=26;" parent="1" vertex="1">
          <mxGeometry x="-306" y="443" width="120" height="60" as="geometry" />
        </mxCell>
        <mxCell id="7SKpadpjBrFhAPYEajGP-24" value="1" style="rounded=1;whiteSpace=wrap;html=1;fontSize=26;" parent="1" vertex="1">
          <mxGeometry x="-146" y="443" width="120" height="60" as="geometry" />
        </mxCell>
        <mxCell id="7SKpadpjBrFhAPYEajGP-25" value="40" style="rounded=1;whiteSpace=wrap;html=1;fillColor=#d5e8d4;strokeColor=#82b366;fontSize=32;" parent="1" vertex="1">
          <mxGeometry x="-63" y="582" width="120" height="65" as="geometry" />
        </mxCell>
        <mxCell id="7SKpadpjBrFhAPYEajGP-26" value="32" style="rounded=1;whiteSpace=wrap;html=1;fillColor=#fff2cc;strokeColor=#d6b656;fontSize=24;" parent="1" vertex="1">
          <mxGeometry x="-460" y="233" width="120" height="60" as="geometry" />
        </mxCell>
        <mxCell id="7SKpadpjBrFhAPYEajGP-27" value="&lt;font style=&quot;font-size: 24px&quot;&gt;2&lt;sup&gt;5&lt;/sup&gt;&lt;/font&gt;" style="rounded=1;whiteSpace=wrap;html=1;fillColor=#dae8fc;strokeColor=#6c8ebf;" parent="1" vertex="1">
          <mxGeometry x="-460" y="343" width="120" height="60" as="geometry" />
        </mxCell>
        <mxCell id="7SKpadpjBrFhAPYEajGP-28" value="1" style="rounded=1;whiteSpace=wrap;html=1;fontSize=26;" parent="1" vertex="1">
          <mxGeometry x="-460" y="443" width="120" height="60" as="geometry" />
        </mxCell>
      </root>
    </mxGraphModel>
  </diagram>
</mxfile>
